<svg xmlns="http://www.w3.org/2000/svg" viewBox="0 0 128 128" enable-background="new 0 0 128 128"><path fill="#B388FF" d="M0 0h128v128H0z"/><path fill="none" d="M64.1 32.5c-.1.1-.2.2-.3.2.1-.1.2-.2.3-.2zM65 31.8c-.1.1-.2.1-.2.2l.2-.2zM63.1 33.1c-.1.1-.2.2-.4.2.2 0 .3-.1.4-.2zM57.7 35.7c-.2.1-.3.1-.5.2.2-.1.4-.2.5-.2zM60.5 34.6c-.1 0-.1.1-.2.1 0-.1.1-.1.2-.1zM59.2 35.1c-.1.1-.3.1-.4.2.1 0 .2-.1.4-.2zM68 28.8c-.1.1-.1.2-.2.3.1-.1.2-.2.2-.3zM66.1 30.9c-.1.1-.2.1-.3.2.1-.1.2-.1.3-.2zM67.5 29.4l-.3.3.3-.3zM66.8 30.1l-.3.3c.2-.1.3-.2.3-.3zM62 33.8c-.1.1-.2.1-.3.2.1-.1.2-.1.3-.2zM66 82.8c-.1.5-.2 1.1-.3 1.6.1-.5.2-1.1.3-1.6zM56.2 36.1c-.2 0-.3.1-.5.1.1 0 .3 0 .5-.1zM65.6 84.6c-.1.5-.2 1.1-.4 1.6.2-.5.3-1 .4-1.6zM66.2 81c-.1.5-.1 1.1-.2 1.6.1-.5.1-1 .2-1.6zM59.6 60.2c.1.1.2.3.4.4l-.4-.4zM69.1 27.3l-.6.9c.5-.7.9-1.3 1.2-1.8-.1.2-.3.5-.5.7 0 .1 0 .2-.1.2zM66.2 81c1-10.6-3.4-17.3-6.2-20.4 2.7 3.1 7.2 9.8 6.2 20.4zM65.2 86.5c-.1.6-.3 1.1-.5 1.7.2-.6.4-1.2.5-1.7zM58.6 59.1l.2.2c-.1 0-.2-.1-.2-.2zM58.3 58.9s.1.1.2.1c-.1 0-.1 0-.2-.1zM58.1 58.8l.1.1c0-.1 0-.1-.1-.1zM58 58.7zM61.7 96.9c-.1-.1-.2-.2-.4-.3l.1.1.3.2zM59.2 59.8l.3.3-.3-.3zM58.9 59.4l.3.3c-.2-.1-.2-.2-.3-.3z"/><path fill="#2A56C6" d="M98.8 94.8v.2-.2c.1 0 0 0 0 0z"/><path fill="#DD2C00" d="M89.1 120.1z"/><path fill="#FFE0B2" d="M2.8 109.6c-.9.4-1.9.8-2.8 1.2V128h15.5L2.8 109.6z"/><path fill="#DD2C00" d="M92.6 107.9c-.1-.5-.5-2.4-.5-2.9-2.6.7-5.2 1.1-8 1.2-8.7-.2-16.5-3.8-22.3-9.3l-.2-.2-.1-.1c-2.9.2-7.6.2-10.8.6-4.6.6-9.6 1.3-15 2.4-4.7.9-11.2 2.7-33.3 9.3l.5.7L15.5 128h70.2c.7-1.9 1.5-3.8 2.5-5.6.4-.8.8-1.7 1.1-2.6 0 .1 0 .2-.1.3v.2l1.3-3.6s.5 4.9 1.5 11.3h5.6c-3.9-12-4.5-16-5-20.1z"/><path fill="#FFEB3B" d="M65.2 86.5c0-.1 0-.1.1-.2.1-.6.3-1.1.4-1.6v-.2c.1-.5.2-1.1.3-1.6v-.1c.1-.5.1-1.1.2-1.6 1-10.6-3.4-17.3-6.2-20.4-.1-.1-.2-.3-.4-.4l-.1-.1-.3-.3-.1-.1-.3-.3-.1-.1-.2-.2-.1-.1c-.1-.1-.1-.1-.2-.1 0 0-.1 0-.1-.1l-.1-.1s-.1 0-.1-.1c-1.6-1.7-3.3-3-4.9-4.1-.9-.6-1.7-1.2-2.5-1.6-1.8-1.1-3.2-1.6-3.4-1.7-1.3-1.2-2.3-3-2.6-5-.6-4.4 2.3-8.4 6.3-9.1 1-.2 2-.1 3 .2 0-.2.1-.5.1-.7.6-.1 1.1-.2 1.6-.4.2 0 .3-.1.5-.1.4-.1.7-.2 1.1-.3.2-.1.3-.1.5-.2.3-.1.7-.2 1-.3.1-.1.3-.1.4-.2.4-.1.7-.3 1.1-.5.1 0 .1-.1.2-.1l1.2-.6c.1-.1.2-.1.3-.2.3-.1.5-.3.8-.5.1-.1.3-.2.4-.2.2-.1.4-.3.7-.4.1-.1.2-.2.3-.2.2-.2.5-.3.7-.5.1-.1.2-.1.2-.2.3-.2.5-.4.8-.7.1-.1.2-.1.2-.2l.5-.5.3-.3.4-.4.3-.3c.1-.1.2-.3.3-.4.1-.1.2-.2.2-.3.2-.2.3-.4.4-.6l.6-.9c0-.1.1-.1.1-.2.2-.3.3-.5.5-.7 4.2 5.9 14.3 12.1 39.1 8.4-4.2-14-17.1-23.2-31.1-21.1-5.3.8-10.1 3.2-14 6.6l-.2.2c-.5.4-1 .9-1.4 1.4-5.3 4.8-23.3 19.8-52.2 26.5-3.9 0-7.4 1.6-9.9 4.2v19.3c.3.3.6.6.9.8l-.3.9S30.9 96.4 64 90.3l.6-1.8c0-.1 0-.1.1-.2.2-.7.4-1.3.5-1.8z"/><path fill="#FFE0B2" d="M84 106.2c2.8-.1 5.4-.5 8-1.2.3-1.3.5-2.5.8-3.8 4.3-19.3 9.7-37.4 15-52.9h6.9l-4.8-8.2c-.2-1.9-.6-3.6-1.2-5.3-24.8 3.7-35-2.5-39.1-8.4-.3.5-.7 1.1-1.2 1.8-.1.2-.3.4-.4.6-.1.1-.1.2-.2.3-.1.1-.2.3-.3.4l-.3.3-.4.4-.3.3-.5.5s-.1 0-.2.1c-.3.2-.5.4-.8.7-.1.1-.2.1-.2.2-.2.2-.4.3-.7.5-.1.1-.2.2-.3.2-.2.1-.4.3-.7.4-.1.1-.2.2-.4.2-.3.2-.5.3-.8.5-.1.1-.2.1-.3.2l-1.2.6c-.1 0-.1.1-.2.1-.4.2-.7.3-1.1.5-.1.1-.3.1-.4.2-.3.1-.6.2-1 .3-.2.1-.3.1-.5.2-.3.1-.7.2-1.1.3-.2 0-.3.1-.5.1-.5.1-1.1.3-1.6.4-.1.2-.1.5-.1.7-.9-.3-1.9-.4-3-.2-4.1.6-6.9 4.7-6.3 9.1.3 2 1.2 3.8 2.6 5 .3.1 1.6.7 3.4 1.7.8.4 1.6 1 2.5 1.6 1.5 1.1 3.2 2.5 4.9 4.1l.1.1.1.1.1.1s.1.1.2.1c0 0 .1 0 .1.1l.2.2.1.1.3.3.1.1.3.3.1.1c.1.1.2.3.4.4 2.7 3.1 7.2 9.8 6.2 20.4-.1.5-.1 1.1-.2 1.6v.1c-.1.5-.2 1.1-.3 1.6v.2c-.1.5-.2 1.1-.4 1.6 0 .1 0 .1-.1.2-.1.6-.3 1.1-.5 1.7 0 .1 0 .1-.1.2-.8 2.6-1.8 5.3-3.3 8.3.1.1.2.2.4.3 5.7 5.6 13.5 9.1 22.2 9.3z"/><path fill="#DD2C00" d="M90.5 116.7l-1.3 3.6c.4 2 .9 4.7 1.6 7.7H92c-1-6.5-1.5-11.3-1.5-11.3zM89.2 120.3v-.2c0-.1 0-.2.1-.3-.3 1-.6 1.9-1.1 2.6-1 1.8-1.7 3.7-2.5 5.6h5.1c-.7-3-1.2-5.7-1.6-7.7z"/><path fill="#B1B1B1" d="M89.2 120.3v-.2c0-.1 0-.2.1-.3-.3 1-.6 1.9-1.1 2.6-1 1.8-1.7 3.7-2.5 5.6h5.1c-.7-3-1.2-5.7-1.6-7.7z"/><ellipse fill="#444" cx="95.8" cy="46.7" rx="1.5" ry="1.6"/></svg>