<svg xmlns="http://www.w3.org/2000/svg" viewBox="0 0 128 128" enable-background="new 0 0 128 128"><path fill="#FFFF8D" d="M25.7 116.6c1.5-2 2.8-3.5 3.7-4.5 1-1.1 1.5-1.7 1.5-1.7l.2-.2c2.5-2.8 5.5-4.6 8.6-5.5v-.1c0-.1 0-.1.1-.2.2-.2.3-.4.5-.5l3.5-4.4c9.5-15.3-4.8-32.5-9-37l-7.5-6.4c-1.5-1.2-2.5-3-2.8-5-.6-4.4 2.5-8.4 6.9-9.1 1.3-.2 2.6 0 3.8.4.3-1.1.5-2.2.8-3.1C32.1 11.9 51.7 9.4 51.7 9.4S94.1-5.2 94.1 39.8c.3.9.6 1.9.8 2.9 1.3-.6 2.8-.8 4.3-.6 4.4.6 7.5 4.7 6.9 9.1-.3 2-1.3 3.8-2.8 5L90.1 67.3H90c-1.1 1-17.4 15.6-2.3 32.5l6.4 4.4 33.9 21.4V0H0v128h17.5c3.1-4.7 6-8.5 8.2-11.4z"/><path fill="#055524" d="M39.8 104.7s0-.1 0 0c0-.1 0 0 0 0zM94.1 104.3l-.8 1.5-6.8 12.1V128H128v-2.3z"/><path fill="#C2C2C2" d="M51.7 31.4v-22s-19.6 2.5-15.8 29.9c10.7-1.8 14.2-5.3 15.8-7.9z"/><path fill="#848484" d="M94.1 39.8c0-45-42.4-30.3-42.4-30.3v22c4.5 5.8 15.6 12 42.4 8.3z"/><path fill="#FFE0B2" d="M66.8 116.8l21-17c-15.1-17 1.2-31.6 2.3-32.5h.1l13.2-11.1c1.5-1.2 2.5-3 2.8-5 .6-4.4-2.5-8.4-6.9-9.1-1.5-.2-3 0-4.3.6-.2-1-.5-1.9-.8-2.9-26.9 3.7-37.9-2.5-42.4-8.4-1.6 2.6-5.1 6.1-15.8 7.9-.2.9-.5 2-.8 3.1-1.2-.4-2.4-.6-3.8-.4-4.4.6-7.5 4.7-6.9 9.1.3 2 1.3 3.8 2.8 5l7.5 6.4c4.2 4.5 18.4 21.7 9 37l23 17.3zM80 50c.9 0 1.6.7 1.6 1.6 0 .9-.7 1.6-1.6 1.6-.9 0-1.6-.7-1.6-1.6 0-.8.7-1.6 1.6-1.6zm-25.7 0c.9 0 1.6.7 1.6 1.6 0 .9-.7 1.6-1.6 1.6-.9 0-1.6-.7-1.6-1.6 0-.8.7-1.6 1.6-1.6zm11 8.6C83.7 58.6 79.8 77 79.8 77c-11.8 0-14.5-9.8-14.5-9.8S62.6 77 50.8 77c0 0-3.9-18.4 14.5-18.4zM40.4 103.9c-.2.2-.3.4-.5.5 0 0-.1.1-.1.2v.1l.6-.8z"/><circle fill="#444" cx="80" cy="51.7" r="1.6"/><circle fill="#444" cx="54.3" cy="51.7" r="1.6"/><path fill="#055524" d="M39.8 104.7c-3.2.9-6.1 2.7-8.6 5.5l-.2.2s-.5.6-1.5 1.7c-.9 1.1-2.2 2.6-3.7 4.5-2.3 2.9-5.1 6.7-8.3 11.4h31v-7.8l-8.7-15.5z"/><path fill="#848484" d="M65.3 58.6zM65.3 67.3s2.7 9.8 14.5 9.8c0 0 3.9-18.5-14.5-18.5v8.7z"/><path fill="#C2C2C2" d="M65.3 67.3v-8.7C46.9 58.6 50.8 77 50.8 77c11.8 0 14.5-9.7 14.5-9.7z"/><path fill="#A7FFEB" d="M80.9 128h5.6v-10.1zM59.9 128h13.8l-6.9-10zM48.4 128h4.3l-4.3-7.8z"/><path fill="#1DE9B6" d="M66.8 118l-.5-.8.5-.4-22.9-17.3h-.1l-3.4 4.4-.6.8 8.6 15.5 4.3 7.8h7.2zM93.3 105.8l.8-1.5-6.4-4.4-20.9 16.9-.5.4.5.8 6.9 10h7.2l5.6-10.1z"/></svg>