<svg xmlns="http://www.w3.org/2000/svg" viewBox="0 0 128 128" enable-background="new 0 0 128 128"><path fill="#B9F6CA" d="M0 0h128v128H0z"/><path fill="none" d="M38.9 47.4zM39.6 47.4z"/><path fill="#444" d="M94.2 44.7c-.8-2.6-1.8-5-3.2-7.2l-7.2 1.4-20.4 4c6.3 2.7 15.9 4 30.8 1.8z"/><path fill="#FFCC80" d="M69.5 117.4c6.3.5 13.8-.3 22.8-3.6-.2-.7-.3-1.4-.5-2.1-.3-1.4-4-22.1-4.2-29-.2-7.6.7-12.3 1.9-15.3h9L95.9 57c-.2-2.4-.4-4.8-.7-6.8-.2-1.9-.6-3.6-1.2-5.3-14.9 2.2-24.5.9-30.7-1.8l-23.1 4.5c-.2 0-.5.1-.7.1h-.7c-.4-.1-.9-.2-1.2-.4-.4 0-.9 0-1.4.1-4.1.6-6.9 4.7-6.3 9.1.3 2 1.2 3.8 2.6 5 .3.1 1.6.7 3.4 1.7.8.4 1.6 1 2.5 1.6 1.5 1.1 3.2 2.5 4.9 4.1 6.6 6.8 12.1 18.6 2.4 37 0-.4 7.4 10.1 23.8 11.5zm10.1-62.5c.9 0 1.6.7 1.6 1.6 0 .9-.7 1.6-1.6 1.6-.9 0-1.6-.7-1.6-1.6-.1-.8.7-1.6 1.6-1.6z"/><path fill="#E65100" d="M38.9 47.4h.7c.2 0 .5 0 .7-.1l23.1-4.5 20.4-4 23.3-4.5c1.9-.4 3.2-2 2.9-3.6-.3-1.6-2.1-2.6-4.1-2.3l-19.6 3.8-1.3-6.8C83 14.5 70 7.7 55.9 10.5c-14 2.7-23.7 13.9-21.6 24.9h.1l1.7 9v.7c.2.8.7 1.4 1.4 1.9.5.1 1 .3 1.4.4z"/><circle fill="#444" cx="79.6" cy="56.6" r="1.6"/><path fill="#FFCC80" d="M102.8 109.3l.2.2c1-.4 2-.9 2.9-1.3-1.1.4-2.1.8-3.1 1.1zM128 97.7c-3.3 1.9-6.6 3.7-9.9 5.3-3.9 1.8-7.7 3.5-11.4 4.9-.1 0-.2.1-.3.1l21.7 18.1V97.7z"/><path fill="#689F38" d="M128 128v-1.8L106.3 108c-.1.1-.3.1-.4.2-1 .4-1.9.9-2.9 1.3-3 1.3-6 2.6-9.2 3.8-.5.2-.9.3-1.4.5-9 3.3-16.5 4.1-22.8 3.6-16.4-1.3-23.8-11.9-23.8-11.9-2.2 4.2-5.2 8.7-9.2 13.5-.1.1-.2.3-.3.4-.6.7-1.1 1.3-1.7 2-.9 1.1-2 2.6-3.4 4.5-.4.6-.9 1.3-1.4 2H128z"/><path fill="#FFCC80" d="M36.3 119.3s0 .1-.1.1c.1-.1.2-.3.3-.4-.1.1-.2.2-.2.3z"/></svg>