<svg xmlns="http://www.w3.org/2000/svg" viewBox="0 0 128 128" enable-background="new 0 0 128 128"><path fill="#FF8A80" d="M0 0h128v128H0z"/><path fill="#F2A600" d="M88.9 67c-1.6 1.4-3.1 2.7-4.4 3.9-3.3 3.8-6.3 10.3-1 18.7 5.7-8.1 10.6-17.7 13.2-29.1L88.9 67zM12.9 127.4c4.5-7.1 8.6-12.7 11.7-16.6 1.5-2 2.8-3.5 3.7-4.5 1-1.1 1.5-1.7 1.5-1.7l.2-.2c2.4-2.7 5.3-4.5 8.4-5.4.1-.2.2-.4.2-.5 0-.1 0-.2.1-.2 13.6-13.3 4.7-26.5-1.5-32.9l-4.4-3.8c-2.6 8.7-8.5 18.2-20.1 26.9-6.4 4.1-10.6 11.4-10.6 19.7 0 8.2 4.1 15.4 10.4 19.8.1-.2.3-.4.4-.6zM30.3 41.7c3.1-.4 6.1 1 7.7 3.4 10.3-2 11-11.5 12.6-14.1 4.5 5.8 13.3 17.8 39.5 14.5 1.6-2.7 4.7-4.3 8-3.8.4 0 .7.1 1 .2-.1-2.2-.3-4.4-.8-6.4v-.1C94.9 19.6 80.8 7.8 64 7.8c-15 0-27.8 9.4-32.8 22.6C29.8 34 29 38 28.9 42.1c.2-.1.5-.1.7-.2.2-.1.5-.1.7-.2z"/><path fill="#80DEEA" d="M93 99.4l-.2-.1-1.5 1.5c-.2.1-.3.3-.5.4-.4.4-.9.8-1.3 1.1-.1.1-.3.2-.4.3-.6.5-1.2.9-1.8 1.3-.1.1-.2.1-.3.2-.5.4-1.1.7-1.6 1-.2.1-.3.2-.5.3-.6.3-1.2.7-1.8 1-.1 0-.1.1-.2.1-.7.4-1.4.7-2.1 1-.1.1-.3.1-.4.2-.6.2-1.2.5-1.8.7-.2.1-.3.1-.5.2-.8.3-1.5.5-2.3.7l-2.4.6c-.1 0-.2 0-.3.1-.7.1-1.4.3-2.1.4h-.2c-1.5.2-3 .3-4.5.4h1-1.9 1c-.6 0-1.2 0-1.9-.1l-2.7-.3c-.3 0-.6-.1-.9-.1-.5-.1-1.1-.2-1.6-.3h-.1c-2.7-.6-5.2-1.4-7.6-2.4-.1 0-.2-.1-.3-.1-.4-.2-.8-.4-1.2-.5-.1-.1-.3-.1-.4-.2-.4-.2-.7-.4-1-.5-.2-.1-.3-.2-.5-.3-.3-.2-.7-.4-1-.6-.2-.1-.3-.2-.5-.3-.5-.3-1-.6-1.5-1-.3-.2-.5-.4-.8-.5-.2-.2-.4-.3-.6-.5-.3-.2-.5-.4-.8-.6-.2-.2-.4-.3-.6-.5-.3-.2-.5-.4-.8-.7l-.5-.5-.8-.8-.4-.4c-.4-.4-.8-.8-1.1-1.3-.1.2-.2.4-.2.5-3.1.9-6 2.7-8.4 5.4l-.2.2s-.5.6-1.5 1.7c-.9 1.1-2.2 2.6-3.7 4.5-3.1 3.9-7.2 9.5-11.7 16.6-.1.2-.2.4-.4.6H118c-2.7-5.4-5.1-9.8-7.1-13.1-1.3-2.2-2.3-3.9-3.1-5.1-.9-1.3-1.3-2-1.3-2l-.2-.3c-.6-.9-1.2-1.7-1.9-2.4-3.3-3.3-7.4-5.2-11.4-5.5z"/><path fill="#FFE0B2" d="M38.8 98.1c-.1.1-.1.2-.1.2.4.4.8.8 1.1 1.3l.4.4.8.8.5.5c.3.2.5.5.8.7.2.2.4.3.6.5.2.2.5.4.8.6.2.2.4.3.6.5.2.2.5.4.8.5.5.3 1 .7 1.5 1 .2.1.3.2.5.3.3.2.7.4 1 .6.2.1.3.2.5.3.3.2.7.4 1 .5.1.1.3.1.4.2.4.2.8.4 1.2.5.1 0 .2.1.3.1 2.4 1 4.9 1.9 7.6 2.4h.1c.5.1 1.1.2 1.6.3.3.1.6.1.9.1l2.7.3c.6 0 1.2.1 1.9.1 1.5 0 3.1-.2 4.5-.4h.2c.7-.1 1.4-.2 2.1-.4.1 0 .2 0 .3-.1l2.4-.6c.8-.2 1.6-.5 2.3-.7.2-.1.3-.1.5-.2.6-.2 1.2-.5 1.8-.7.1-.1.3-.1.4-.2.7-.3 1.4-.6 2.1-1 .1 0 .1-.1.2-.1.6-.3 1.2-.7 1.8-1 .2-.1.3-.2.5-.3.5-.3 1.1-.7 1.6-1 .1-.1.2-.1.3-.2.6-.4 1.2-.9 1.8-1.3.1-.1.3-.2.4-.3.4-.4.9-.7 1.3-1.1.2-.1.3-.3.5-.4.5-.5 1.1-1 1.5-1.5l.2.1s-.1 0-.1-.1c-4.5-3.5-7.5-6.8-9.4-9.8-5.3-8.4-2.3-14.9 1-18.7 1.3-1.2 2.8-2.5 4.4-3.9l7.8-6.6 5.3-4.5c1.5-1.2 2.6-3 2.9-5.1.6-4-2-7.8-5.8-8.8-.3-.1-.7-.2-1-.2-3.3-.5-6.4 1.1-8 3.8-26.2 3.3-35-8.7-39.5-14.5C49 33.7 48.4 43.2 38 45.2c-1.7-2.4-4.6-3.9-7.7-3.4-.3 0-.5.1-.7.1-.2.1-.5.1-.7.2-3.6 1.2-5.9 4.8-5.4 8.7.3 2.1 1.3 3.8 2.8 5.1l6.5 5.6 4.4 3.8c6.3 6.3 15.2 19.5 1.6 32.8zm40.1-48.4c.9 0 1.6.7 1.6 1.6 0 .9-.7 1.6-1.6 1.6-.9 0-1.6-.7-1.6-1.6 0-.9.7-1.6 1.6-1.6zm-25.7 0c.9 0 1.6.7 1.6 1.6 0 .9-.7 1.6-1.6 1.6-.9 0-1.6-.7-1.6-1.6 0-.9.7-1.6 1.6-1.6z"/><circle fill="#444" cx="78.9" cy="51.3" r="1.6"/><circle fill="#444" cx="53.2" cy="51.3" r="1.6"/></svg>