<svg xmlns="http://www.w3.org/2000/svg" viewBox="0 0 128 128" enable-background="new 0 0 128 128"><path fill="#FFFF8D" d="M0 0h128v128H0z"/><path fill="#F4B400" d="M110.3 91.4l-.5-.5c.1.2.3.4.5.5zM105.9 86.9c.1.2.3.3.4.5-.1-.2-.3-.4-.4-.5zM115.7 96.4c.2.2.4.4.7.6-.3-.2-.5-.4-.7-.6zM104.3 85c.2.2.3.4.5.5-.2-.1-.4-.3-.5-.5zM108 89.1zM124.9 103.1l.9.6c-.3-.3-.6-.4-.9-.6zM96.4 74.1c0 .1.1.1.1.2-.1 0-.1-.1-.1-.2zM111.6 92.7c.2.2.4.4.7.6-.2-.2-.5-.4-.7-.6zM121.6 100.9l.9.6-.9-.6zM102.8 83.2c.1.2.3.3.4.5-.1-.1-.3-.3-.4-.5zM101.4 81.5c.1.1.1.2.2.2-.1 0-.1-.1-.2-.2zM128 110.5c-11.9 6.6-27.2 3.5-35.5-7.8-7.6-10.4-6.9-24.3 1-33.8-3.1-6-4.8-11.4-5.7-15.9-.2-.9-.3-1.7-.4-2.6l-2.2-37.5L77 23.2c-3.7-2.6-8.2-4.2-13.1-4.2s-9.4 1.5-13.1 4.1L42.7 13l-1.8 29-7.7 71.8h.2c-.1 1-.2 2-.2 3 0 4 .8 7.7 2.1 11.2H128v-17.5zM55 38.4c-.9 0-1.6-.7-1.6-1.6 0-.9.7-1.6 1.6-1.6.9 0 1.6.7 1.6 1.6 0 .8-.7 1.6-1.6 1.6zm17.9 0c-.9 0-1.6-.7-1.6-1.6 0-.9.7-1.6 1.6-1.6.9 0 1.6.7 1.6 1.6 0 .8-.7 1.6-1.6 1.6zM113.6 94.5c.2.2.5.4.7.6-.2-.1-.5-.4-.7-.6zM98.6 77.7c.1.1.1.2.2.2l-.2-.2zM97.4 75.9c.1.1.1.2.2.3 0-.1-.1-.2-.2-.3z"/><path fill="#FF5722" d="M92.5 102.7c8.3 11.3 23.6 14.4 35.5 7.8v-5.6c-.7-.4-1.5-.9-2.2-1.3l-.9-.6-2.4-1.5-.9-.6c-1-.7-2.1-1.4-3.1-2.2-.7-.6-1.5-1.2-2.2-1.8-.2-.2-.4-.4-.7-.6-.5-.4-1-.8-1.4-1.2-.2-.2-.5-.4-.7-.6-.4-.4-.9-.8-1.3-1.2-.2-.2-.5-.4-.7-.6-.5-.4-.9-.9-1.3-1.3l-.5-.5-1.8-1.8c-.6-.6-1.1-1.2-1.6-1.8-.1-.2-.3-.3-.4-.5-.4-.4-.8-.9-1.2-1.3-.2-.2-.3-.4-.5-.5-.4-.4-.7-.9-1.1-1.3-.1-.2-.3-.3-.4-.5l-1.2-1.5c-.1-.1-.1-.2-.2-.2-.9-1.2-1.8-2.4-2.6-3.6-.1-.1-.1-.2-.2-.2-.3-.5-.7-1-1-1.5-.1-.1-.1-.2-.2-.3-.3-.5-.6-1-1-1.5 0-.1-.1-.1-.1-.2-1.1-1.8-2-3.5-2.9-5.2-7.7 9.4-8.4 23.4-.8 33.7z"/><circle fill="#444" cx="72.9" cy="36.7" r="1.6"/><circle fill="#444" cx="55" cy="36.7" r="1.6"/><path fill="#444" d="M61.6 39.5c-.5 1-.1 1.7 1 1.7h4.6c1.1 0 1.6-.8 1-1.7l-2.3-4c-.5-1-1.4-1-2 0l-2.3 4z"/></svg>