<svg xmlns="http://www.w3.org/2000/svg" viewBox="0 0 128 128" enable-background="new 0 0 128 128"><path fill="#FF80AB" d="M0 0h128v128H0z"/><path fill="none" d="M55.5 112.8c-.9 0-2-.1-3.1-.2 1.1.1 2.1.2 3.1.2zM70.9 34.6c-.4-.6-.8-1.2-1-1.6.2.5.5 1 1 1.6 0 .1 0 0 0 0z"/><path fill="#5D4037" d="M85.6 43.9c0 .1 0 0 0 0zM87.3 11.7c-7.6 0-14.1 4.9-16.4 11.7-2.8-1.6-5.9-2.7-9.1-3.1-13.9-2.1-26.9 7.1-31.1 21.1 5 .8 9.5 1.1 13.4 1.1 1.4-.6 3-.9 4.6-.9 1.1 0 2.2.2 3.3.5 10-1.3 15.2-5.2 17.9-9 .3.5.6 1 1 1.6v.1c2.1 3.1 6.6 7.7 14.7 9.2 0-.1 0-.1 0 0 .9-.3 1.9-.4 3-.2 1.5.2 2.8.9 3.8 1.9 7-2.2 12.2-8.8 12.2-16.5 0-9.7-7.8-17.5-17.3-17.5z"/><path fill="#FFCC80" d="M48.6 63.8c5.6 0 10.1-4.5 10.1-10.1s-4.5-10.1-10.1-10.1-10.1 4.5-10.1 10.1c.1 5.5 4.6 10.1 10.1 10.1zm-1.7-10.5c0 .9-.7 1.6-1.6 1.6-.9 0-1.6-.7-1.6-1.6 0-.9.7-1.6 1.6-1.6.9-.1 1.6.7 1.6 1.6zM36.6 52.7c.4-4.6 3.3-8.5 7.4-10.2-3.9 0-8.3-.4-13.4-1.1-.5 1.7-.9 3.5-1.2 5.3-.3 2-.5 4.4-.7 6.8l.1-.9h7.8zM85.6 43.9c0-.1 0-.1 0 0zM85.6 43.9s0 .1 0 0c-8.1-1.5-12.6-6.1-14.7-9.2-.5-.7-.8-1.2-1.1-1.7-2.7 3.8-7.9 7.7-17.9 9 5.1 1.4 8.8 6.1 8.8 11.6 0 6.7-5.4 12.1-12.1 12.1-6.3 0-11.5-4.9-12-11.1h-8.1l.3-1.1L26.2 64h9c1.2 3 2.1 7.7 1.9 15.3-.2 6.9-3.9 27.7-4.2 29-.1.7-.3 1.4-.5 2.1 2.6.9 5.1 1.7 7.4 2.2.9.2 1.7.4 2.6.6 4.8.9 9 1.1 12.8.8 16.4-1.3 23.8-11.9 23.8-11.9-9.8-18.4-4.3-30.2 2.4-37 1.6-1.7 3.3-3 4.9-4.1.9-.6 1.7-1.2 2.5-1.6 1.8-1.1 3.2-1.6 3.4-1.7 1.3-1.2 2.3-3 2.6-5 .4-2.8-.7-5.4-2.5-7.2-1-1-2.4-1.7-3.8-1.9-1-.1-2 0-2.9.3zm-33.2 68.7c1.1.1 2.1.2 3.1.2-1 0-2-.1-3.1-.2zM88.6 116l-.3-.3c.1.1.2.3.3.4.1 0 0 0 0-.1z"/><circle fill="#444" cx="45.3" cy="53.3" r="1.6"/><path fill="#FFEE58" d="M55.3 114.1c-3.8.3-8 .1-12.8-.8 1.3.8 2.2 2.2 2.2 3.8 0 2.4-2 4.4-4.4 4.4-2.4 0-4.4-2-4.4-4.4 0-2.3 1.8-4.2 4-4.4-2.4-.6-4.8-1.3-7.4-2.2-1.2 5.7-2.6 11.6-4.1 17.5h69c-1.4-2-2.6-3.8-3.7-5.3s-2.1-2.8-2.8-3.8c.2.3.4.6.7.9-.8 1-2.1 1.7-3.5 1.7-2.4 0-4.4-2-4.4-4.4 0-1.8 1-3.3 2.5-4-3-3.9-5.3-7.5-7.2-11 .2.1-7.3 10.6-23.7 12zm9 7.4c-2.4 0-4.4-2-4.4-4.4 0-2.4 2-4.4 4.4-4.4 2.4 0 4.4 2 4.4 4.4 0 2.4-2 4.4-4.4 4.4zM87.2 114.3c.4.5.7.9 1.1 1.4-.3-.4-.7-.9-1.1-1.4z"/><path fill="#F9A825" d="M36 117.1c0 2.4 2 4.4 4.4 4.4 2.4 0 4.4-2 4.4-4.4 0-1.6-.9-3.1-2.2-3.8-.8-.2-1.7-.3-2.6-.6-2.2.3-4 2.1-4 4.4z"/><circle fill="#F9A825" cx="64.3" cy="117.1" r="4.4"/><path fill="#F9A825" d="M83.8 117.1c0 2.4 2 4.4 4.4 4.4 1.4 0 2.7-.7 3.5-1.7-.2-.3-.5-.6-.7-.9-.2-.3-.4-.5-.6-.8-.6-.7-1.2-1.4-1.7-2-.1-.1-.2-.3-.3-.4-.4-.5-.8-.9-1.1-1.4l-.9-1.2c-1.6.8-2.6 2.3-2.6 4z"/><path fill="#DB4437" d="M36.6 54.7c.5 6.2 5.7 11.1 12 11.1 6.7 0 12.1-5.4 12.1-12.1 0-5.5-3.7-10.2-8.8-11.6-1-.3-2.1-.5-3.3-.5-1.6 0-3.2.3-4.6.9-4.1 1.7-7.1 5.6-7.4 10.2h-7.7l-.1.9-.3 1.1h8.1zm12-11.1c5.6 0 10.1 4.5 10.1 10.1s-4.5 10.1-10.1 10.1-10.1-4.5-10.1-10.1c.1-5.6 4.6-10.1 10.1-10.1z"/></svg>