<svg xmlns="http://www.w3.org/2000/svg" viewBox="0 0 128 128" enable-background="new 0 0 128 128"><path fill="#84FFFF" d="M0 0h128v128H0z"/><path fill="none" d="M100.4 53.6c-.1 0-.1 0 0 0-.1 0-.1 0 0 0zM99.6 53.3h-.1.1zM29.1 53.6c-.1 0-.2.1-.3.1.1 0 .2 0 .3-.1zM28.2 54c-.1 0-.1.1-.2.1 0 0 .1 0 .2-.1zM29.9 53.3c-.1 0-.2.1-.3.1.2 0 .3-.1.3-.1z"/><path fill="#8D6E63" d="M44 103.5l22.2 18.4 21-17c-9.3-10.4-5.8-18.3-2.1-22.7 1.3-1.2 2.8-2.5 4.4-3.9l13.1-11c1.5-1.2 2.6-3 2.9-5.1.4-3.2-1.1-6.3-3.7-7.9-.5-.3-.9-.5-1.5-.7h-.1c-.2-.1-.5-.2-.7-.2h-.1c-.3-.1-.6-.1-.8-.2-1.4-.2-2.8 0-4 .5-.8-14-13.9-11-29.9-11-14.6 0-26.8-2.5-29.4 7.8-.2.9-.5 2-.8 3.1-1.2-.4-2.4-.6-3.8-.4-.3 0-.6.1-.9.2-.1 0-.2.1-.3.1-.2.1-.4.1-.6.2-.1 0-.2.1-.3.1l-.6.3c-.1 0-.1.1-.2.1-.3.2-.5.3-.8.5-2.3 1.7-3.6 4.5-3.2 7.6.3 2.1 1.3 3.8 2.8 5.1l11 9.3c5.5 5.3 12.7 15.6 6.4 26.8zm35.5-42.4c.9 0 1.6.7 1.6 1.6 0 .9-.7 1.6-1.6 1.6-.9 0-1.6-.7-1.6-1.6 0-.9.7-1.6 1.6-1.6zm-25.7 0c.9 0 1.6.7 1.6 1.6 0 .9-.7 1.6-1.6 1.6-.9 0-1.6-.7-1.6-1.6-.1-.9.7-1.6 1.6-1.6zM39.3 109.5c-.1.1-.1.2-.1.2l.5-.6c-.1.1-.2.3-.4.4z"/><path fill="#FFEB3B" d="M62.8 128h6.8l-3.4-5zM39.2 109.7c-.1.2-.2.4-.2.5-3.1.9-6 2.7-8.4 5.4l-.2.2s-.5.6-1.5 1.7c-.9 1.1-2.2 2.6-3.7 4.5-1.3 1.6-2.8 3.6-4.4 5.8h28.6l-10.2-18.1zM111.5 126.3c-1.3-2.2-2.3-3.9-3.1-5.1-.9-1.3-1.3-2-1.3-2l-.2-.3c-.6-.9-1.2-1.7-1.9-2.4-3.1-3.4-7-5.2-10.9-5.7l-.3.4L83.6 128h28.9c-.3-.6-.7-1.2-1-1.7z"/><path fill="#444" d="M28 54.1c.1 0 .1-.1.2-.1l.6-.3c.1 0 .2-.1.3-.1.2-.1.4-.2.6-.2.1 0 .2-.1.3-.1.3-.1.6-.1.9-.2 1.3-.2 2.6 0 3.8.4.3-1.1.5-2.2.8-3.1 2.6-10.3 14.8-7.8 29.4-7.8 16 0 29-3 29.9 11 1.2-.5 2.6-.7 4-.5.3 0 .6.1.8.2h.1c.2.1.5.1.7.2h.1c.5.2 1 .4 1.5.7.8-3.1 1.2-6.4 1.2-9.8 0-21.3-17.3-38.6-38.6-38.6S26 23.1 26 44.4c0 3.5.5 6.9 1.3 10.1.1 0 .4-.2.7-.4z"/><circle fill="#444" cx="79.5" cy="62.7" r="1.6"/><circle fill="#444" cx="53.8" cy="62.7" r="1.6"/><path fill="#F57F17" d="M65.7 122.3l.5-.4L44 103.5l-4.3 5.6-.5.6L49.4 128h13.4l3.4-5zM65.7 122.3l.5.7 3.4 5h14l10.1-16.8.3-.4-6.4-6.2-.4.3-21 17z"/></svg>