<svg xmlns="http://www.w3.org/2000/svg" viewBox="0 0 128 128" enable-background="new 0 0 128 128"><path fill="#80D8FF" d="M0 0h128v128H0z"/><path fill="none" d="M59.5 25.7c-.1-.1-.2-.3-.3-.4 0 .2.1.3.3.4zM58.5 24.5c-.2-.2-.3-.4-.4-.6.1.2.2.4.4.6zM58.9 25.1c-.1-.1-.2-.3-.3-.4.1.1.2.3.3.4zM60 26.3l-.4-.4c.2.1.3.3.4.4zM46.3 56.2zM46.8 56.6l.3.3-.3-.3zM46.6 56.4l.2.2-.2-.2zM46.4 56.2l.1.1-.1-.1zM60.7 26.9l-.4-.4c.1.1.2.3.4.4zM69.3 31.6c-.3-.1-.7-.2-1-.3.3 0 .6.2 1 .3zM70.6 31.9c-.4-.1-.8-.2-1.1-.3.3.1.7.2 1.1.3zM47.2 56.9l.4.4c-.2-.1-.3-.3-.4-.4zM74.2 32.7c-.3-.1-.6-.1-.9-.2.3.1.6.2.9.2zM61.4 27.5c-.2-.1-.3-.3-.5-.4.1.1.3.2.5.4zM68.1 31.2c-.3-.1-.6-.2-.9-.4.2.1.6.2.9.4zM62.2 28.1c-.2-.2-.4-.3-.6-.5.2.2.4.3.6.5zM65.9 30.3c-1.4-.6-2.6-1.3-3.6-2.1 1 .7 2.2 1.4 3.6 2.1zM67 30.7c-.3-.1-.6-.3-.9-.4.2.2.5.3.9.4zM87.1 33.4h-.8.8zM83.9 33.4h1.4-1.4zM80 33.4c.6 0 1.3.1 1.9.1-.6 0-1.1 0-1.7-.1H80zM82 33.4h1.6H82zM88.1 33.3c.3 0 .7 0 1-.1h-.2c-.2.1-.5.1-.8.1zM94.3 32.7c-.2 0-.5.1-.7.1 1.2-.1 2.4-.3 3.6-.5-.7.1-1.5.2-2.2.3-.2.1-.5.1-.7.1zM90.9 33.1c-.3 0-.6 0-.8.1.9-.1 1.9-.2 2.9-.3-.3 0-.5.1-.8.1-.5 0-.9 0-1.3.1zM51.1 61.9c.2.3.4.6.5 1-.2-.4-.3-.7-.5-1zM47.6 57.3c.8.8 1.8 1.9 2.8 3.5-1-1.5-2-2.7-2.8-3.5zM50.5 60.9l.6.9c-.3-.3-.5-.6-.6-.9zM51.7 63c.2.4.4.7.6 1.1-.3-.4-.4-.8-.6-1.1zM78.2 33.2c-.3 0-.6-.1-.9-.1-.2 0-.3 0-.5-.1-.3 0-.6-.1-.9-.1h-.2c1.3.2 2.6.3 4 .4-.3 0-.6 0-.9-.1-.2.1-.4.1-.6 0zM74.4 32.8c.4.1.7.1 1.1.2-.3 0-.6-.1-.9-.1-.1-.1-.2-.1-.2-.1zM70.7 32c.7.2 1.5.4 2.3.5-.3-.1-.6-.1-.9-.2-.5-.1-.9-.2-1.4-.3zM52.2 64.1c.6 1.2 1.1 2.6 1.5 4.1-.4-1.5-.9-2.9-1.5-4.1z"/><path fill="#E65100" d="M101.3 128h.3c-2.4-9.5-4.8-19.4-6.8-28.7-7.6 2.7-16.6 4.4-22.4 4.5h.9-1.8.9c-8.9-.2-16.8-3.9-22.7-9.6-2.5 4.9-6 10.3-10.8 16.2H97c1.4 5.8 2.9 11.8 4.3 17.6z"/><path fill="#2A56C6" d="M97.2 92.5v-.2.2z"/><path fill="#FFE0B2" d="M71.5 103.8h1.8-1.8z"/><path fill="#00838F" d="M39.2 107.1c.1-.1.2-.3.3-.4l-.3.3v.1z"/><path fill="#EE8100" d="M101.6 128c-1.5-5.8-3-11.8-4.3-17.7H38.9c-.9 1.1-2.1 2.2-3.1 3.3-.2.2-.3.4-.5.5-4 4.6-7.5 9.2-10.4 13.8h76.7z"/><path fill="#FFE0B2" d="M72.4 103.8c5.9-.2 14.8-1.8 22.4-4.5-.3-1.4-.6-2.7-.8-4.1-1.9-9.4-3.2-18.1-3.4-25-.5-19.6 6.6-20.2 6.6-20.2h2.1c0-4.2-.5-8.8-.9-12.3-.2-1.9-.6-3.6-1.2-5.3-1.2.2-2.4.3-3.6.5-.2 0-.4.1-.6.1-1 .1-1.9.2-2.9.3-.3 0-.6 0-.9.1-.3 0-.7 0-1 .1-.3 0-.7 0-1 .1h-5.1c-.7 0-1.3 0-1.9-.1h-.3c-1.4-.1-2.8-.2-4-.4h-.2c-.4-.1-.7-.1-1.1-.2h-.2c-.3-.1-.6-.1-.9-.2-.1 0-.2 0-.3-.1-.8-.2-1.5-.3-2.3-.5h-.1c-.4-.1-.8-.2-1.1-.3-.1 0-.1 0-.2-.1-.3-.1-.7-.2-1-.3-.1 0-.1 0-.2-.1-.3-.1-.6-.2-.9-.4-.1 0-.1 0-.2-.1-.3-.1-.6-.3-.9-.4 0 0-.1 0-.1-.1-1.4-.6-2.6-1.3-3.6-2.1l-.1-.1c-.2-.2-.4-.3-.6-.5l-.2-.2c-.2-.1-.3-.3-.5-.4l-.2-.2-.4-.4-.2-.2-.4-.4-.2-.2c-.1-.1-.2-.3-.3-.4l-.2-.2c-.1-.1-.2-.3-.3-.4 0-.1-.1-.1-.1-.2-.2-.2-.3-.4-.4-.6l-8 24.9-11.2-14.1c-4.1.6-6.9 4.7-6.3 9.1.3 2 1.2 3.8 2.6 5 .3.1 1.6.7 3.4 1.7.8.4 1.6 1 2.5 1.6 1.5 1.1 3.2 2.5 4.9 4.1h.1l.1.1.2.2.1.1.3.3.1.1.4.4c.8.8 1.8 1.9 2.8 3.5v.1l.6.9s0 .1.1.1c.2.3.4.6.5 1 0 0 0 .1.1.1.2.4.4.7.6 1.1.6 1.2 1.1 2.6 1.5 4.1 1.7 6.2 1.6 14.8-4 25.9 5.6 5.8 13.6 9.4 22.5 9.7zm11.7-61.2c.8 0 1.5.7 1.5 1.6 0 .9-.7 1.6-1.5 1.6s-1.5-.7-1.5-1.6c0-.9.7-1.6 1.5-1.6z"/><ellipse fill="#444" cx="84.1" cy="44.2" rx="1.5" ry="1.6"/><path fill="#5D4037" d="M53.7 68.2c-.4-1.5-.9-2.9-1.5-4.1-.2-.4-.4-.8-.6-1.1 0 0 0-.1-.1-.1-.2-.3-.4-.7-.5-1 0 0 0-.1-.1-.1l-.6-.9v-.1c-1-1.5-2-2.7-2.8-3.5l-.4-.4-.1-.1-.3-.3-.1-.1-.2-.2c-.1 0-.1-.1-.1-.1h-.1c-1.6-1.7-3.3-3-4.9-4.1-.9-.6-1.7-1.2-2.5-1.6-1.8-1.1-3.2-1.6-3.4-1.7-1.3-1.2-2.3-3-2.6-5-.6-4.4 2.3-8.4 6.3-9.1L50 48.9 58 24c.1.2.3.4.4.6 0 .1.1.1.1.2.1.1.2.3.3.4l.2.2c.1.1.2.3.3.4l.2.2c.1.1.2.3.4.4l.2.2.4.4.2.2c.2.1.3.3.5.4l.2.2c.2.2.4.3.6.5l.1.1c1 .7 2.2 1.4 3.6 2.1 0 0 .1 0 .1.1.3.1.6.3.9.4.1 0 .1 0 .2.1.3.1.6.2.9.4.1 0 .1 0 .2.1.3.1.7.2 1 .3.1 0 .1 0 .2.1.4.1.7.2 1.1.3h.1c.4.1.9.2 1.3.3.3.1.6.1.9.2.1 0 .2 0 .3.1.3.1.6.1.9.2h.4c.3 0 .6.1.9.1h.4c.3 0 .6.1.9.1.2 0 .3 0 .5.1.3 0 .6.1.9.1h.6c.3 0 .6 0 .9.1h.6c.5 0 1.1 0 1.7.1h5.1c.3 0 .7 0 1-.1.3 0 .6 0 .8-.1h.2c.3 0 .6 0 .9-.1.3 0 .6 0 .8-.1.4 0 .8-.1 1.2-.1.3 0 .5-.1.8-.1.2 0 .4-.1.6-.1.2 0 .5-.1.7-.1.2 0 .5-.1.7-.1.7-.1 1.4-.2 2.2-.3-3.7-12.4-14.3-21-26.4-21.4 0 0-50.8-8.1-42.4 56.4l25.9.7z"/></svg>